<svg xmlns="http://www.w3.org/2000/svg" width="26.96" height="38.755" viewBox="0 0 26.96 38.755">
  <path id="Icon_map-book-store" data-name="Icon map-book-store" d="M33.44,33.455V4.81a3.38,3.38,0,0,0-3.37-3.37H9.85A3.38,3.38,0,0,0,6.48,4.81V36.825A3.38,3.38,0,0,0,9.85,40.2H30.07c1.565,0,3.37,0,3.37-1.685v-.843H10.693a1.69,1.69,0,0,1-1.685-1.685V33.455H33.44ZM10.693,8.18a.845.845,0,0,1,.842-.843h16.85a.845.845,0,0,1,.843.843V9.865a.845.845,0,0,1-.843.843H11.535a.845.845,0,0,1-.842-.843Zm0,6.74a.845.845,0,0,1,.842-.843h16.85a.845.845,0,0,1,.843.843v1.685a.845.845,0,0,1-.843.843H11.535a.845.845,0,0,1-.842-.843V14.92Z" transform="translate(-6.48 -1.44)" fill="#fff"/>
</svg>
