<svg xmlns="http://www.w3.org/2000/svg" width="22.431" height="19.939" viewBox="0 0 22.431 19.939">
  <path id="Icon_awesome-shopping-cart" data-name="Icon awesome-shopping-cart" d="M20.567,11.734l1.841-8.1A.935.935,0,0,0,21.5,2.492H6.2L5.843.747A.935.935,0,0,0,4.927,0H.935A.935.935,0,0,0,0,.935v.623a.935.935,0,0,0,.935.935H3.656L6.392,15.867A2.181,2.181,0,1,0,9,16.2h8.164a2.18,2.18,0,1,0,2.477-.405l.215-.945a.935.935,0,0,0-.911-1.142H8.494l-.255-1.246H19.655A.935.935,0,0,0,20.567,11.734Z" fill="#077187"/>
</svg>
