<svg xmlns="http://www.w3.org/2000/svg" width="454" height="69" viewBox="0 0 454 69">
  <g id="Group_20" data-name="Group 20" transform="translate(-769.895 -438.298)">
    <text id="THOUSANDS_OF_BOOKS" data-name="THOUSANDS OF BOOKS" transform="translate(895.895 503.298)" fill="#077187" font-size="12" font-family="MonumentExtended-Regular, Monument"><tspan x="0" y="0">THOUSANDS OF BOOKS</tspan></text>
    <g id="Group_19" data-name="Group 19" transform="translate(770 438)">
      <text id="LOOK" transform="translate(-0.105 43.298)" fill="#077187" font-size="44" font-family="Montserrat-Bold, Montserrat" font-weight="700"><tspan x="0" y="0">LOOK</tspan></text>
      <text id="INNA" transform="translate(184.895 43.298)" fill="#077187" font-size="44" font-family="Montserrat-Bold, Montserrat" font-weight="700"><tspan x="0" y="0">INNA</tspan></text>
      <text id="BOOK" transform="translate(312.895 43.298)" fill="#077187" font-size="44" font-family="Montserrat-Bold, Montserrat" font-weight="700"><tspan x="0" y="0">BOOK</tspan></text>
      <g id="Group_18" data-name="Group 18" transform="translate(141.633 9.253)">
        <g id="magnifying-glass-svgrepo-com" transform="translate(0 0)">
          <g id="Group_17" data-name="Group 17" transform="translate(0 0)">
            <path id="Path_4" data-name="Path 4" d="M44.275,39.718,37.9,33.36a.683.683,0,0,0-.1-.079,15.463,15.463,0,0,1-2.03,2.49,15.191,15.191,0,0,1-2.5,2.032c.031.033.055.071.087.1l6.361,6.373a3.225,3.225,0,0,0,4.56-4.561Z" transform="translate(-9.509 -9.513)" fill="#077187"/>
            <path id="Path_5" data-name="Path 5" d="M25.35,4.341a14.854,14.854,0,1,0,0,21.008A14.868,14.868,0,0,0,25.35,4.341ZM7.074,22.623a11,11,0,1,1,15.549,0A11.007,11.007,0,0,1,7.074,22.623Z" transform="translate(0 0)" fill="#077187"/>
            <path id="Path_6" data-name="Path 6" d="M12.864,21.413c-.315-1.294-1.612-3.089-2.7-2.517-.865.441-.621,2.465-.214,3.662,1.823,5.443,8.451,6.593,9.14,5.9S14.113,26.534,12.864,21.413Z" transform="translate(-2.738 -5.37)" fill="#077187"/>
          </g>
        </g>
      </g>
    </g>
  </g>
</svg>
